<svg width="128" height="128" viewBox="0 0 128 128" fill="none" xmlns="http://www.w3.org/2000/svg">
<rect width="128" height="128" rx="24" fill="#101010"/>
<path d="M55 62C62.0645 63.3534 66.0424 63.3131 71 62" stroke="white" stroke-width="3"/>
<path d="M54 70C61.9387 71.324 64.7163 71.3427 72 70" stroke="white" stroke-width="3"/>
<path d="M56 77C60.4588 79.6422 66.5384 79.691 71 77" stroke="white" stroke-width="3"/>
<g filter="url(#filter0_d_235_3)">
<path d="M70.2171 61.5509L68.4441 56.2494L73.8202 54.773C75.9582 54.1858 78.2315 54.3288 80.2817 55.1792L82.6387 56.157C84.4805 56.921 86.053 58.2192 87.1543 59.8847L90.5979 65.0926L93.6779 69.7506L88.1063 69.7796L81.877 69.8121C79.8848 69.8225 77.9341 69.2356 76.2756 68.1268L74.1531 66.7078C72.307 65.4736 70.9222 63.6593 70.2171 61.5509Z" stroke="white" stroke-width="3"/>
</g>
<g filter="url(#filter1_d_235_3)">
<path d="M50.0725 53.2264C53.5799 53.0079 58.7471 55.6088 58.7471 55.6088L56.974 60.9103C56.2689 63.0186 54.8841 64.8329 53.0379 66.0671L50.9154 67.486C49.2569 68.5948 47.3062 69.1817 45.314 69.1713L39.0847 69.1387L33.5131 69.1096L36.5932 64.4516C36.5932 64.4516 38.9154 58.9886 41.7266 56.6883C44.4595 54.4521 46.5534 53.4456 50.0725 53.2264Z" stroke="white" stroke-width="3"/>
</g>
<g filter="url(#filter2_d_235_3)">
<path d="M55.7397 47.9641L61.1522 53.2349L55.5359 58.2924C53.8969 59.7683 51.8161 60.6613 49.6175 60.8323L45.013 61.1905C43.0434 61.3438 41.0728 60.9103 39.3498 59.9447L32.1027 55.8834L26.1689 52.5581L32.2293 49.4649L39.6312 45.687C41.391 44.7888 43.3772 44.4318 45.3392 44.6611L49.9261 45.1972C52.1163 45.4531 54.1602 46.4259 55.7397 47.9641Z" stroke="white" stroke-width="3"/>
</g>
<g filter="url(#filter3_d_235_3)">
<path d="M71.7854 58.2926L66.169 53.2352L71.5814 47.9644C73.161 46.4261 75.2048 45.4534 77.395 45.1974L81.9819 44.6613C83.9439 44.4319 85.9301 44.7889 87.6899 45.6871L95.0918 49.4649L101.152 52.5581L95.2185 55.8834L87.9714 59.9448C86.2484 60.9104 84.2778 61.3439 82.3083 61.1907L77.7038 60.8325C75.5051 60.6615 73.4244 59.7685 71.7854 58.2926Z" stroke="white" stroke-width="3"/>
</g>
<g filter="url(#filter4_d_235_3)">
<circle cx="63.55" cy="42.5" r="8" stroke="white" stroke-width="3"/>
</g>
<g filter="url(#filter5_d_235_3)">
<path d="M59.7583 57.2184L63.5 53L67.2417 57.2184C70.2111 60.5661 72.034 64.7745 72.4446 69.2304C72.8075 73.1682 72.0516 77.1283 70.2638 80.6555L67.0625 86.9714L63.5 94L59.9375 86.9714L56.7362 80.6555C54.9484 77.1283 54.1925 73.1682 54.5554 69.2304C54.966 64.7745 56.7889 60.5661 59.7583 57.2184Z" stroke="white" stroke-width="3"/>
</g>
<defs>
<filter id="filter0_d_235_3" x="66.0203" y="52.9157" width="30.9373" height="19.3982" filterUnits="userSpaceOnUse" color-interpolation-filters="sRGB">
<feFlood flood-opacity="0" result="BackgroundImageFix"/>
<feColorMatrix in="SourceAlpha" type="matrix" values="0 0 0 0 0 0 0 0 0 0 0 0 0 0 0 0 0 0 127 0" result="hardAlpha"/>
<feOffset dy="0.5"/>
<feGaussianBlur stdDeviation="0.25"/>
<feColorMatrix type="matrix" values="0 0 0 0 0 0 0 0 0 0 0 0 0 0 0 0 0 0 0.35 0"/>
<feBlend mode="normal" in2="BackgroundImageFix" result="effect1_dropShadow_235_3"/>
<feBlend mode="normal" in="SourceGraphic" in2="effect1_dropShadow_235_3" result="shape"/>
</filter>
<filter id="filter1_d_235_3" x="30.2335" y="51.7118" width="30.8468" height="19.9613" filterUnits="userSpaceOnUse" color-interpolation-filters="sRGB">
<feFlood flood-opacity="0" result="BackgroundImageFix"/>
<feColorMatrix in="SourceAlpha" type="matrix" values="0 0 0 0 0 0 0 0 0 0 0 0 0 0 0 0 0 0 127 0" result="hardAlpha"/>
<feOffset dy="0.5"/>
<feGaussianBlur stdDeviation="0.25"/>
<feColorMatrix type="matrix" values="0 0 0 0 0 0 0 0 0 0 0 0 0 0 0 0 0 0 0.35 0"/>
<feBlend mode="normal" in2="BackgroundImageFix" result="effect1_dropShadow_235_3"/>
<feBlend mode="normal" in="SourceGraphic" in2="effect1_dropShadow_235_3" result="shape"/>
</filter>
<filter id="filter2_d_235_3" x="22.4904" y="43.0935" width="41.3558" height="20.6272" filterUnits="userSpaceOnUse" color-interpolation-filters="sRGB">
<feFlood flood-opacity="0" result="BackgroundImageFix"/>
<feColorMatrix in="SourceAlpha" type="matrix" values="0 0 0 0 0 0 0 0 0 0 0 0 0 0 0 0 0 0 127 0" result="hardAlpha"/>
<feOffset dy="0.5"/>
<feGaussianBlur stdDeviation="0.25"/>
<feColorMatrix type="matrix" values="0 0 0 0 0 0 0 0 0 0 0 0 0 0 0 0 0 0 0.35 0"/>
<feBlend mode="normal" in2="BackgroundImageFix" result="effect1_dropShadow_235_3"/>
<feBlend mode="normal" in="SourceGraphic" in2="effect1_dropShadow_235_3" result="shape"/>
</filter>
<filter id="filter3_d_235_3" x="63.475" y="43.0937" width="41.3558" height="20.6272" filterUnits="userSpaceOnUse" color-interpolation-filters="sRGB">
<feFlood flood-opacity="0" result="BackgroundImageFix"/>
<feColorMatrix in="SourceAlpha" type="matrix" values="0 0 0 0 0 0 0 0 0 0 0 0 0 0 0 0 0 0 127 0" result="hardAlpha"/>
<feOffset dy="0.5"/>
<feGaussianBlur stdDeviation="0.25"/>
<feColorMatrix type="matrix" values="0 0 0 0 0 0 0 0 0 0 0 0 0 0 0 0 0 0 0.35 0"/>
<feBlend mode="normal" in2="BackgroundImageFix" result="effect1_dropShadow_235_3"/>
<feBlend mode="normal" in="SourceGraphic" in2="effect1_dropShadow_235_3" result="shape"/>
</filter>
<filter id="filter4_d_235_3" x="53.55" y="33" width="20" height="20" filterUnits="userSpaceOnUse" color-interpolation-filters="sRGB">
<feFlood flood-opacity="0" result="BackgroundImageFix"/>
<feColorMatrix in="SourceAlpha" type="matrix" values="0 0 0 0 0 0 0 0 0 0 0 0 0 0 0 0 0 0 127 0" result="hardAlpha"/>
<feOffset dy="0.5"/>
<feGaussianBlur stdDeviation="0.25"/>
<feColorMatrix type="matrix" values="0 0 0 0 0 0 0 0 0 0 0 0 0 0 0 0 0 0 0.35 0"/>
<feBlend mode="normal" in2="BackgroundImageFix" result="effect1_dropShadow_235_3"/>
<feBlend mode="normal" in="SourceGraphic" in2="effect1_dropShadow_235_3" result="shape"/>
</filter>
<filter id="filter5_d_235_3" x="52.4668" y="50.7395" width="22.0664" height="47.5783" filterUnits="userSpaceOnUse" color-interpolation-filters="sRGB">
<feFlood flood-opacity="0" result="BackgroundImageFix"/>
<feColorMatrix in="SourceAlpha" type="matrix" values="0 0 0 0 0 0 0 0 0 0 0 0 0 0 0 0 0 0 127 0" result="hardAlpha"/>
<feOffset dy="0.5"/>
<feGaussianBlur stdDeviation="0.25"/>
<feColorMatrix type="matrix" values="0 0 0 0 0 0 0 0 0 0 0 0 0 0 0 0 0 0 0.35 0"/>
<feBlend mode="normal" in2="BackgroundImageFix" result="effect1_dropShadow_235_3"/>
<feBlend mode="normal" in="SourceGraphic" in2="effect1_dropShadow_235_3" result="shape"/>
</filter>
</defs>
</svg>
